<?xml version="1.0" encoding="UTF-8"?>
<svg width="934px" height="639px" viewBox="0 0 934 639" version="1.1" xmlns="http://www.w3.org/2000/svg" xmlns:xlink="http://www.w3.org/1999/xlink">
    <!-- Generator: Sketch 52.6 (67491) - http://www.bohemiancoding.com/sketch -->
    <title>magic-link</title>
    <desc>Created with Sketch.</desc>
    <g id="Page-1" stroke="none" stroke-width="1" fill="none" fill-rule="evenodd">
        <g id="recover-password">
            <path d="M813.465491,520.230435 C808.600201,560.837123 671.562495,600.188675 632.293798,605.295994 C558.150804,614.939094 446.010138,569.332244 436.778088,569.3352 C422.542267,569.353188 232.195141,650.962699 133.626257,569.3352 C104.730306,545.4057 89.0590948,511.236117 85.2647223,466.02464 C74.5278481,338.205759 133.539112,254.25829 209.657364,199.387548 C353.649648,95.5909184 551.021645,99.9438834 692.890558,206.474607 C787.38984,277.435167 831.172507,372.346554 813.465491,520.230435 Z" id="Path" fill="#F2F2F2"></path>
            <path d="M300,257.29714 C300,370.26448 232.84271,409.70845 150,409.70845 C67.15729,409.70845 0,370.26445 0,257.29714 C0,144.32983 150,0.61759 150,0.61759 C150,0.61759 300,144.32981 300,257.29714 Z" id="Path" fill="#5A67D8"></path>
            <polygon id="Path" fill="#3F3D56" points="144.536 392.428 146.072 297.884 210.006 180.921 146.313 283.053 147.003 240.543 191.066 155.921 147.186 229.293 147.186 229.293 148.428 152.836 195.612 85.466 148.623 140.813 149.399 0.618 144.522 186.211 144.923 178.555 96.951 105.126 144.154 193.252 139.684 278.642 139.551 276.375 84.248 199.102 139.383 284.382 138.824 295.061 138.724 295.221 138.77 296.098 127.43 512.739 142.581 512.739 144.399 400.84 199.399 315.769"></polygon>
            <path d="M933.011031,285.370851 C933.011031,389.173892 871.223855,425.418031 795.005516,425.418031 C718.787176,425.418031 657,389.173864 657,285.370851 C657,181.567839 795.005516,49.5140308 795.005516,49.5140308 C795.005516,49.5140308 933.011031,181.56782 933.011031,285.370851 Z" id="Path" fill="#5A67D8"></path>
            <polygon id="Path" fill="#3F3D56" points="792.738545 409.188043 794.151722 322.313778 852.973353 214.839219 794.37345 308.68592 795.008276 269.624477 835.547856 191.867306 795.176643 259.287116 795.176643 259.287116 796.319328 189.032571 839.730343 127.127858 796.498735 177.984919 797.212684 49.16302 792.725665 219.700076 793.094599 212.665157 748.958595 145.192971 792.387091 226.169886 788.274527 304.632755 788.152162 302.549662 737.271368 231.545314 787.997596 309.907107 787.483295 319.719789 787.391291 319.86681 787.433613 320.672664 777.000396 519.739 790.939873 519.739 792.6125 416.917632 843.214523 338.747885"></polygon>
            <path d="M832,529.98118 C832,556.49085 658.28648,638.98118 444,638.98118 C229.71352,638.98118 56,556.49085 56,529.98118 C56,503.47151 215.71352,443.98118 430,443.98118 C644.28648,443.98118 832,503.47151 832,529.98118 Z" id="Path" fill="#3F3D56"></path>
            <path d="M832,529.98118 C832,556.49085 658.28648,638.98118 444,638.98118 C229.71352,638.98118 56,556.49085 56,529.98118 C56,503.47151 215.71352,443.98118 430,443.98118 C644.28648,443.98118 832,503.47151 832,529.98118 Z" id="Path" fill="#000000" opacity="0.1"></path>
            <path d="M832,529.98118 C832,556.49085 658.28648,577.98118 444,577.98118 C229.71352,577.98118 56,556.49085 56,529.98118 C56,503.47151 215.71352,443.98118 430,443.98118 C644.28648,443.98118 832,503.47151 832,529.98118 Z" id="Path" fill="#3F3D56"></path>
            <g id="Group-2" transform="translate(217.000000, 376.000000)">
                <path d="M0.42886,21.06172 C0.42886,59.09072 24.28629,89.86338 53.76948,89.86338" id="Path" fill="#3F3D56"></path>
                <path d="M53.76948,89.86338 C53.76948,51.40704 80.39298,20.28866 113.29448,20.28866" id="Path" fill="#5A67D8"></path>
                <path d="M19.75517,24.50911 C19.75517,60.63266 34.9686,89.86338 53.76948,89.86338" id="Path" fill="#5A67D8"></path>
                <path d="M53.76948,89.86338 C53.76948,40.72473 84.54209,0.96238 122.57114,0.96238" id="Path" fill="#3F3D56"></path>
                <path d="M42.548,90.34844 C42.548,90.34844 50.11257,90.11544 52.39234,88.49206 C54.67211,86.86868 64.02857,84.93024 64.59413,87.53381 C65.15969,90.13738 75.96228,100.48281 67.42191,100.55168 C58.88154,100.62055 47.57791,99.22138 45.3025,97.83536 C43.02709,96.44934 42.548,90.34844 42.548,90.34844 Z" id="Path" fill="#A8A8A8"></path>
            </g>
            <path d="M284.02632,476.30677 C275.48595,476.37568 264.18232,474.97649 261.90692,473.59046 C260.17409,472.53492 259.48358,468.74746 259.25254,467 C259.09254,467.00688 259,467.00984 259,467.00984 C259,467.00984 259.47912,473.11073 261.75451,474.49676 C264.0299,475.88279 275.33351,477.28198 283.87391,477.21307 C286.33918,477.19319 287.19073,476.31607 287.14397,475.01702 C286.80149,475.80188 285.86125,476.292 284.02632,476.30677 Z" id="Path" fill="#000000" opacity="0.2"></path>
            <ellipse id="Oval" fill="#000000" opacity="0.1" cx="449" cy="524.98118" rx="132" ry="21"></ellipse>
            <g id="Group" transform="translate(533.000000, 150.000000)">
                <rect id="Rectangle" fill="#FFB9B9" x="147" y="359" width="11" height="25"></rect>
                <path d="M158.265786,64.0316122 L160.958824,66.7835004 L158.265786,71.017172 L158.265786,93.9014931 L117,93.9014931 L117,18 L158.265786,18 L158.265786,64.0316122 Z M188.572204,161.648484 L190,173.324664 L152.389538,185 L147.628291,163.594936 L188.572204,161.648484 Z" id="Path-2" fill="#FFB9B9"></path>
                <path d="M132.517244,49.5284327 C132.517244,49.5284327 131.551724,58.2249542 129.620693,58.2249542 C127.689662,58.2249542 120.931031,61.6069571 120.931031,61.6069571 L119,70.7866158 L132.517244,79 L154.724142,76.5843052 L161,66.9215008 L154.724142,60.6406741 C154.724142,60.6406741 149.413795,49.0453122 151.34481,46.629609 C153.275825,44.2139058 132.517244,49.5284327 132.517244,49.5284327 Z" id="Path" fill="#000000" opacity="0.1"></path>
                <path d="M73.1771101,352 C73.1771101,352 68.9174542,380.800002 63.7112053,382.719998 C58.5049564,384.639995 83.5895998,388 83.5895998,388 L85.4827857,377.439997 C85.4827857,377.439997 85.956078,358.239996 87.8492639,355.359996 C89.7424498,352.479997 73.1771101,352 73.1771101,352 Z" id="Path" fill="#FFB9B9"></path>
                <path d="M121.561712,181.253164 C121.561712,181.253164 190.964819,168.619786 191.443467,166.190288 C191.922114,163.76079 205.802728,184.654462 197.187171,225.46999 C188.571615,266.285517 167.032715,362.493585 167.032715,362.493585 C167.032715,362.493585 145.015177,369.296216 145.493816,363.951282 C145.972455,358.606348 153.152094,265.799646 153.152094,265.799646 L148.365668,226.441799 L140.228751,231.300787 L106.245156,299.326654 L89.0140267,358.120468 C89.0140267,358.120468 66.996488,362.007663 70.3469794,353.747377 C73.6974708,345.48709 84.7062485,281.348393 84.7062485,281.348393 L114.860704,190.971147 C114.860704,190.971147 113.903434,181.253164 121.561712,181.253164 Z" id="Path" fill="#2F2E41"></path>
                <ellipse id="Oval" fill="#FFB9B9" cx="139" cy="36.5" rx="20" ry="20.5"></ellipse>
                <path d="M160.290032,61 C160.290032,61 150.80779,70.1752131 128.524516,67.760682 C106.241243,65.3461509 134.687977,119.431607 134.687977,119.431607 L143.696102,174 C143.696102,174 183.521524,169.170946 184.94386,159.995733 C186.366195,150.82052 160.290032,61 160.290032,61 Z" id="Path" fill="#F2F2F2"></path>
                <path d="M149.740095,112.828304 C149.740095,112.828304 138.318049,107.017374 134.034785,91.0373107 C129.751521,75.057247 125.944172,58.5929503 123.564578,59.0771916 C121.555421,59.4860496 102.921636,66.7991972 96.8823645,71.6894425 C95.7689029,72.5910203 95.0835632,73.4103313 95.0094759,74.0887644 C94.5335605,78.4469613 112.142541,122.028947 112.142541,122.028947 C112.142541,122.028947 125.944172,153.504817 120.233154,163.673951 C114.522135,173.843086 114.046211,186.917702 124.516418,185.949185 C134.986624,184.980669 169.728661,183.043721 164.969482,155.92604 C164.969482,155.92604 174.011925,174.811568 199.235603,161.252728 C199.235603,161.252728 214.464989,158.831505 213.989074,153.504817 C213.513158,148.178129 189.717268,102.174928 189.717268,102.174928 C189.717268,102.174928 185.90992,81.8366672 193.048718,74.0887644 L176.867509,54.7189947 C176.867509,54.7189947 173.06016,48.9080655 169.252812,51.8135301 C165.445463,54.7189947 156.878935,59.5614329 155.45118,60.0456826 C154.023425,60.5299323 153.08477,58.3052261 153.08477,58.3052261 C149.787312,65.3227201 148.4649,73.1324973 149.264237,80.8681762 C150.691951,93.458534 149.740095,112.828304 149.740095,112.828304 Z" id="Path" fill="#2F2E41"></path>
                <path d="M74.1541837,376.592596 C74.1541837,376.592596 73.0829528,373.222204 66.9014797,376.592596 C66.9014797,376.592596 68.8764706,366 62.159382,366 C55.4422934,366 53.0433314,378.518519 53.0433314,378.518519 C53.0433314,378.518519 51.1241668,386.703705 38.1697786,390.07408 C25.2153905,393.444455 35.2910276,405 44.4070782,405 C53.5231288,405 65.5179222,397.777779 65.5179222,397.777779 C65.5179222,397.777779 90.467112,398.259266 90.9469011,393.444447 C91.4266902,388.629628 88.5479391,374.185186 86.6287745,374.185186 C84.7096099,374.185186 80.8712723,380.92597 80.8712723,380.92597 L74.1541837,376.592596 Z" id="Path" fill="#2F2E41"></path>
                <path d="M155.533108,368.169283 C155.533108,368.169283 148.908883,360.878084 145.123606,373.030078 C141.338329,385.182072 138.499332,390.042885 140.865172,391.987202 C143.231012,393.931518 145.123606,392.959364 144.177309,396.848006 C143.231012,400.736648 147.016265,409 155.533133,409 C164.050001,409 166.415808,402.680965 165.942643,398.306246 C165.469478,393.931527 161.684209,388.584645 161.684209,388.584645 L157.898932,374.974404 L155.533108,368.169283 Z" id="Path" fill="#2F2E41"></path>
                <path d="M192.619457,27 L167.385726,35.4965087 C167.385726,35.4965087 144.532505,48.7133054 154.5308,51.5454586 C164.529094,54.3776118 173.099023,43.0489499 173.099023,43.0489499 L195,37.3846108 L192.619457,27 Z" id="Path" fill="#FFB9B9"></path>
                <path d="M125.81213,4.44994608 C122.812331,6.53500859 120.424302,9.39093388 118.153755,12.2726262 C113.540276,18.1279099 109.020009,25.1208983 110.156716,32.5280282 C110.588443,35.3413244 111.820708,37.9596032 112.514474,40.7183971 C113.450801,44.4416038 113.389101,48.3381276 113.321467,52.1800067 C113.377078,53.8124847 113.177649,55.4436044 112.730581,57.0128117 C112.062791,58.5417107 111.277378,60.0148813 110.381624,61.4186631 C108.085616,65.7576444 108.029288,70.9132033 108.02737,75.8380082 C107.917366,77.4959834 108.139695,79.1593803 108.680931,80.7277471 C109.307849,82.2085308 110.474951,83.3695625 111.442806,84.6474134 C114.69762,89.0283023 115.655247,94.7391225 114.011464,99.9656344 C116.551621,99.9768244 118.868395,98.494659 119.953378,96.1642715 C120.287967,98.6493811 119.51117,101.156246 117.835206,103 C123.292321,101.354536 129.142122,98.5802296 131.134019,93.1690972 C131.718524,91.3304631 132.048137,89.4182769 132.113385,87.4874995 C133.172913,73.9142219 133.777947,59.8334112 128.98017,47.1175627 C127.445181,43.0492898 125.356082,39.111403 124.841491,34.7866426 C124.3269,30.4618822 125.899928,25.4641198 129.815906,23.6780984 C129.90713,24.7852752 130.391789,25.8210921 131.179653,26.5927101 C132.051247,27.2493194 133.663101,26.837467 133.678877,25.7361362 L135.570381,28.40828 C136.29585,28.0468189 136.915194,27.4986234 137.366599,26.818408 L138.663325,28.4290328 L141.421397,26.3934499 L143.816212,29.0139088 C144.738257,28.4810117 145.473339,27.6693539 145.918881,26.6921976 C146.433588,27.4732313 147.070662,28.3316163 147.992914,28.4161451 C150.001174,28.6002872 150.415645,25.366695 152.17003,24.3580767 C153.509306,23.7576894 155.079982,24.2407221 155.865355,25.4945069 C156.588819,26.7431224 156.852399,28.2116023 156.609227,29.6388314 C155.883206,36.289898 150.289997,42.3588136 151.948345,48.8355569 C152.880853,52.4774882 156.021539,55.3977429 156.258447,59.1528712 C156.447779,62.1538479 154.709128,64.992802 154.735697,67.9998411 C154.766837,71.5238212 157.166552,74.5169998 159.509186,77.1188861 C163.678509,81.7496192 168.066939,86.1633552 172.674476,90.3600941 L171.251127,87.8335216 C172.595951,87.7260343 173.919934,88.2200769 174.87567,89.1860154 C175.284811,87.7337406 174.606606,86.220549 173.966565,84.8568613 C170.133932,76.6909932 167.03969,67.9961098 166.577494,58.9637568 C165.93504,46.4086061 170.384261,33.6579517 167.564628,21.4157108 C165.94279,14.5613374 162.162803,8.430266 156.797591,3.95177053 C154.189678,1.77359306 152.212293,0.468901878 148.835096,0.228848897 C145.059928,-0.103944617 141.2622,-0.07371359 137.492644,0.319138132 C133.328003,0.721193371 129.320782,2.13834505 125.81213,4.44994608 Z" id="Path" fill="#FF6584"></path>
                <path d="M174,55.7872148 C174,55.7872148 179.248812,56.2684771 181.634629,55.7872148 C184.020446,55.3059524 187.360612,52.899674 187.360612,52.899674 L205.492866,39.4244783 L189.746429,41.830765 C189.746429,41.830765 192.609416,19.692947 191.655092,19.2116847 C190.700769,18.7304223 237.940064,9.58654608 236.985732,24.5055122 C236.0314,39.4244783 209.310185,68.7811565 194.040918,74.556238 L184.020446,76 L174,55.7872148 Z" id="Path" fill="#2F2E41"></path>
                <rect id="Rectangle" fill="#FFFFFF" x="0" y="227" width="225" height="54"></rect>
                <rect id="Rectangle" fill="#3F3D56" x="29" y="240" width="167" height="28"></rect>
                <path d="M67.9989446,252.984741 C67.9328235,252.274361 64.7775772,251.958213 60.4484096,252.136103 C62.9570341,248.618189 64.4100042,245.811193 63.8478727,245.368879 C63.3176031,244.951693 61.1475781,246.755261 58.5054104,249.684399 C58.2557114,245.754889 57.6757998,243 57,243 C56.2628739,243 55.6398171,246.277658 55.4350553,250.782565 C51.7586217,248.149736 48.7897433,246.604553 48.3326888,247.180603 C47.896401,247.730603 49.8834454,250.053339 53.0423002,252.831987 C48.8732436,253.447922 45.9361289,254.317346 46.0010554,255.015235 C46.0671765,255.725615 49.2224228,256.041812 53.5515904,255.863921 C51.0429659,259.381836 49.5899958,262.188832 50.1521273,262.631097 C50.6823969,263.048282 52.8524219,261.244763 55.4945896,258.315626 C55.7442886,262.245176 56.3242002,265 57,265 C57.7371261,265 58.3601829,261.722236 58.5649447,257.217386 C62.2413783,259.850216 65.2102567,261.395398 65.6673112,260.819348 C66.103599,260.269348 64.1165546,257.946613 60.9576998,255.167964 C65.1267564,254.55198 68.0638711,253.682605 67.9989446,252.984741 Z" id="Path" fill="#FFFFFF"></path>
                <path d="M95.9989446,252.984741 C95.9328235,252.274361 92.7775772,251.958213 88.4484096,252.136103 C90.9570341,248.618189 92.4100042,245.811193 91.8478727,245.368879 C91.3176031,244.951693 89.1475781,246.755261 86.5054104,249.684399 C86.2557114,245.754889 85.6757998,243 85,243 C84.2628739,243 83.6398171,246.277658 83.4350553,250.782565 C79.7586217,248.149736 76.7897433,246.604553 76.3326888,247.180603 C75.896401,247.730603 77.8834454,250.053339 81.0423002,252.831987 C76.8732436,253.447922 73.9361289,254.317346 74.0010554,255.015235 C74.0671765,255.725615 77.2224228,256.041812 81.5515904,255.863921 C79.0429659,259.381836 77.5899958,262.188832 78.1521273,262.631097 C78.6823969,263.048282 80.8524219,261.244763 83.4945896,258.315626 C83.7442886,262.245176 84.3242002,265 85,265 C85.7371261,265 86.3601829,261.722236 86.5649447,257.217386 C90.2413783,259.850216 93.2102567,261.395398 93.6673112,260.819348 C94.103599,260.269348 92.1165546,257.946613 88.9576998,255.167964 C93.1267564,254.55198 96.0638711,253.682605 95.9989446,252.984741 Z" id="Path" fill="#FFFFFF"></path>
                <path d="M123.998945,252.984741 C123.932824,252.274361 120.777577,251.958213 116.44841,252.136103 C118.957034,248.618189 120.410004,245.811193 119.847873,245.368879 C119.317603,244.951693 117.147578,246.755261 114.50541,249.684399 C114.255711,245.754889 113.6758,243 113,243 C112.262874,243 111.639817,246.277658 111.435055,250.782565 C107.758622,248.149736 104.789743,246.604553 104.332689,247.180603 C103.896401,247.730603 105.883445,250.053339 109.0423,252.831987 C104.873244,253.447922 101.936129,254.317346 102.001055,255.015235 C102.067176,255.725615 105.222423,256.041812 109.55159,255.863921 C107.042966,259.381836 105.589996,262.188832 106.152127,262.631097 C106.682397,263.048282 108.852422,261.244763 111.49459,258.315626 C111.744289,262.245176 112.3242,265 113,265 C113.737126,265 114.360183,261.722236 114.564945,257.217386 C118.241378,259.850216 121.210257,261.395398 121.667311,260.819348 C122.103599,260.269348 120.116555,257.946613 116.9577,255.167964 C121.126756,254.55198 124.063871,253.682605 123.998945,252.984741 Z" id="Path" fill="#FFFFFF"></path>
                <path d="M151.998945,252.984741 C151.932824,252.274361 148.777577,251.958213 144.44841,252.136103 C146.957034,248.618189 148.410004,245.811193 147.847873,245.368879 C147.317603,244.951693 145.147578,246.755261 142.50541,249.684399 C142.255711,245.754889 141.6758,243 141,243 C140.262874,243 139.639817,246.277658 139.435055,250.782565 C135.758622,248.149736 132.789743,246.604553 132.332689,247.180603 C131.896401,247.730603 133.883445,250.053339 137.0423,252.831987 C132.873244,253.447922 129.936129,254.317346 130.001055,255.015235 C130.067176,255.725615 133.222423,256.041812 137.55159,255.863921 C135.042966,259.381836 133.589996,262.188832 134.152127,262.631097 C134.682397,263.048282 136.852422,261.244763 139.49459,258.315626 C139.744289,262.245176 140.3242,265 141,265 C141.737126,265 142.360183,261.722236 142.564945,257.217386 C146.241378,259.850216 149.210257,261.395398 149.667311,260.819348 C150.103599,260.269348 148.116555,257.946613 144.9577,255.167964 C149.126756,254.55198 152.063871,253.682605 151.998945,252.984741 Z" id="Path" fill="#FFFFFF"></path>
                <path d="M179.998945,252.984741 C179.932824,252.274361 176.777577,251.958213 172.44841,252.136103 C174.957034,248.618189 176.410004,245.811193 175.847873,245.368879 C175.317603,244.951693 173.147578,246.755261 170.50541,249.684399 C170.255711,245.754889 169.6758,243 169,243 C168.262874,243 167.639817,246.277658 167.435055,250.782565 C163.758622,248.149736 160.789743,246.604553 160.332689,247.180603 C159.896401,247.730603 161.883445,250.053339 165.0423,252.831987 C160.873244,253.447922 157.936129,254.317346 158.001055,255.015235 C158.067176,255.725615 161.222423,256.041812 165.55159,255.863921 C163.042966,259.381836 161.589996,262.188832 162.152127,262.631097 C162.682397,263.048282 164.852422,261.244763 167.49459,258.315626 C167.744289,262.245176 168.3242,265 169,265 C169.737126,265 170.360183,261.722236 170.564945,257.217386 C174.241378,259.850216 177.210257,261.395398 177.667311,260.819348 C178.103599,260.269348 176.116555,257.946613 172.9577,255.167964 C177.126756,254.55198 180.063871,253.682605 179.998945,252.984741 Z" id="Path" fill="#FFFFFF"></path>
                <path d="M92.2117211,204.876755 C92.2117211,204.876755 89.7642268,236.521165 101.512194,237.959547 C113.260162,239.397929 102.491194,202 102.491194,202 L92.2117211,204.876755 Z" id="Path" fill="#FFB9B9"></path>
                <path d="M99.1783945,73 L95.8421196,73.9677444 C95.8421196,73.9677444 82.0204976,186.225796 91.0760467,208 C91.0760467,208 100.608201,202.677418 105.374274,203.645163 L113,112.193553 L99.1783945,73 Z" id="Path" fill="#2F2E41"></path>
            </g>
        </g>
    </g>
</svg>